<mxfile host="app.diagrams.net" modified="2021-12-31T05:55:45.431Z" agent="5.0 (Windows NT 10.0; Win64; x64) AppleWebKit/537.36 (KHTML, like Gecko) Chrome/96.0.4664.93 Safari/537.36" etag="BAilOW1pf7QJUfxEGzN7" version="16.1.0" type="github">
  <diagram id="U2mbdFIcwTZRsRQhMx0o" name="Page-1">
    <mxGraphModel dx="1038" dy="547" grid="1" gridSize="10" guides="1" tooltips="1" connect="1" arrows="1" fold="1" page="1" pageScale="1" pageWidth="827" pageHeight="1169" math="0" shadow="0">
      <root>
        <mxCell id="0" />
        <mxCell id="1" parent="0" />
        <mxCell id="Xb918L0yOFp29Q5SgB93-2" value="栈&lt;br&gt;stack" style="rounded=0;whiteSpace=wrap;html=1;fillColor=#d5e8d4;strokeColor=#82b366;" vertex="1" parent="1">
          <mxGeometry x="140" y="370" width="180" height="60" as="geometry" />
        </mxCell>
        <mxCell id="Xb918L0yOFp29Q5SgB93-3" value="堆&lt;br&gt;heap" style="rounded=0;whiteSpace=wrap;html=1;fillColor=#dae8fc;strokeColor=#6c8ebf;" vertex="1" parent="1">
          <mxGeometry x="340" y="370" width="440" height="60" as="geometry" />
        </mxCell>
        <mxCell id="Xb918L0yOFp29Q5SgB93-4" value="JVM&lt;br&gt;栈" style="rounded=0;whiteSpace=wrap;html=1;fillColor=#d5e8d4;strokeColor=#82b366;" vertex="1" parent="1">
          <mxGeometry x="140" y="150" width="90" height="200" as="geometry" />
        </mxCell>
        <mxCell id="Xb918L0yOFp29Q5SgB93-5" value="Native&lt;br&gt;栈" style="rounded=0;whiteSpace=wrap;html=1;fillColor=#d5e8d4;strokeColor=#82b366;" vertex="1" parent="1">
          <mxGeometry x="240" y="150" width="80" height="200" as="geometry" />
        </mxCell>
        <mxCell id="Xb918L0yOFp29Q5SgB93-7" value="栈帧" style="rounded=0;whiteSpace=wrap;html=1;fillColor=#dae8fc;strokeColor=#6c8ebf;" vertex="1" parent="1">
          <mxGeometry x="150" y="310" width="70" height="30" as="geometry" />
        </mxCell>
        <mxCell id="Xb918L0yOFp29Q5SgB93-9" style="edgeStyle=orthogonalEdgeStyle;rounded=0;orthogonalLoop=1;jettySize=auto;html=1;exitX=1;exitY=0.5;exitDx=0;exitDy=0;entryX=0;entryY=0.5;entryDx=0;entryDy=0;" edge="1" parent="1" source="Xb918L0yOFp29Q5SgB93-8" target="Xb918L0yOFp29Q5SgB93-7">
          <mxGeometry relative="1" as="geometry" />
        </mxCell>
        <mxCell id="Xb918L0yOFp29Q5SgB93-8" value="程序计数器" style="rounded=0;whiteSpace=wrap;html=1;fillColor=#fff2cc;strokeColor=#d6b656;" vertex="1" parent="1">
          <mxGeometry x="30" y="310" width="80" height="30" as="geometry" />
        </mxCell>
        <mxCell id="Xb918L0yOFp29Q5SgB93-10" value="元空间&lt;br&gt;MetaSpace" style="rounded=0;whiteSpace=wrap;html=1;fillColor=#ffe6cc;strokeColor=#d79b00;" vertex="1" parent="1">
          <mxGeometry x="800" y="370" width="120" height="60" as="geometry" />
        </mxCell>
        <mxCell id="Xb918L0yOFp29Q5SgB93-11" value="Direct Buffer" style="rounded=0;whiteSpace=wrap;html=1;fillColor=#ffe6cc;strokeColor=#d79b00;" vertex="1" parent="1">
          <mxGeometry x="940" y="370" width="120" height="60" as="geometry" />
        </mxCell>
        <mxCell id="Xb918L0yOFp29Q5SgB93-12" value="新生代&lt;br&gt;1/3" style="rounded=0;whiteSpace=wrap;html=1;fillColor=#fff2cc;strokeColor=#d6b656;" vertex="1" parent="1">
          <mxGeometry x="340" y="290" width="190" height="60" as="geometry" />
        </mxCell>
        <mxCell id="Xb918L0yOFp29Q5SgB93-13" value="老年代&lt;br&gt;2/3" style="rounded=0;whiteSpace=wrap;html=1;fillColor=#f8cecc;strokeColor=#b85450;" vertex="1" parent="1">
          <mxGeometry x="547" y="290" width="233" height="60" as="geometry" />
        </mxCell>
        <mxCell id="Xb918L0yOFp29Q5SgB93-14" value="伊甸区&lt;br&gt;Eden&lt;br&gt;8/10" style="rounded=0;whiteSpace=wrap;html=1;fillColor=#dae8fc;strokeColor=#6c8ebf;" vertex="1" parent="1">
          <mxGeometry x="340" y="150" width="90" height="130" as="geometry" />
        </mxCell>
        <mxCell id="Xb918L0yOFp29Q5SgB93-15" value="幸存者&lt;br&gt;Survivor&lt;br&gt;2/10" style="rounded=0;whiteSpace=wrap;html=1;fillColor=#e1d5e7;strokeColor=#9673a6;" vertex="1" parent="1">
          <mxGeometry x="440" y="220" width="90" height="60" as="geometry" />
        </mxCell>
        <mxCell id="Xb918L0yOFp29Q5SgB93-18" value="from&lt;br&gt;1/10" style="rounded=0;whiteSpace=wrap;html=1;fillColor=#e1d5e7;strokeColor=#9673a6;" vertex="1" parent="1">
          <mxGeometry x="440" y="150" width="40" height="60" as="geometry" />
        </mxCell>
        <mxCell id="Xb918L0yOFp29Q5SgB93-19" value="to&lt;br&gt;1/10" style="rounded=0;whiteSpace=wrap;html=1;fillColor=#e1d5e7;strokeColor=#9673a6;" vertex="1" parent="1">
          <mxGeometry x="490" y="150" width="40" height="60" as="geometry" />
        </mxCell>
      </root>
    </mxGraphModel>
  </diagram>
</mxfile>
